<svg width="178" height="103" viewBox="0 0 178 103" fill="none" xmlns="http://www.w3.org/2000/svg">
<g id="Aurixlab">
<path d="M31 65.1C30.8347 65.7613 30.4213 66.092 29.76 66.092C29.264 66.092 28.8093 65.8853 28.396 65.472C28.0653 64.976 28.024 64.3973 28.272 63.736C28.52 63.24 29.0573 62.372 29.884 61.132C30.7933 59.892 31.744 58.652 32.736 57.412C33.728 56.172 34.596 55.056 35.34 54.064C36.1667 53.072 36.5387 52.576 36.456 52.576C36.208 52.4933 35.2573 52.6587 33.604 53.072C31.9507 53.4853 29.9253 54.064 27.528 54.808C25.2133 55.552 22.692 56.4613 19.964 57.536C17.236 58.528 14.6733 59.6027 12.276 60.76C9.796 61.9173 7.688 63.116 5.952 64.356C4.216 65.596 3.18267 66.7947 2.852 67.952C2.52133 68.8613 2.02533 69.316 1.364 69.316C0.950666 69.316 0.62 69.1507 0.372 68.82C0.124 68.4893 0 68.076 0 67.58C0 67.0013 0.248 66.34 0.744 65.596C1.15733 64.7693 1.90133 63.9013 2.976 62.992C4.54667 61.6693 6.572 60.3467 9.052 59.024C11.532 57.7013 14.3013 56.4613 17.36 55.304C20.4187 54.064 23.684 52.9067 27.156 51.832C30.7107 50.7573 34.3067 49.848 37.944 49.104C38.192 49.0213 38.3987 48.98 38.564 48.98C38.7293 48.98 38.8947 48.9387 39.06 48.856C39.2253 48.856 39.3907 48.8147 39.556 48.732C39.556 48.732 40.2587 47.9053 41.664 46.252C43.152 44.516 45.0947 42.284 47.492 39.556C49.8893 36.828 52.6587 33.728 55.8 30.256C58.9413 26.784 62.2067 23.3533 65.596 19.964C69.068 16.492 72.54 13.1853 76.012 10.044C79.484 6.90266 82.7493 4.25733 85.808 2.108C87.792 0.702665 89.3627 0 90.52 0C91.016 0 91.388 0.0826656 91.636 0.247997C92.9587 0.744 93.2893 2.02533 92.628 4.092C92.2973 5.084 91.512 6.61333 90.272 8.68C89.032 10.7467 87.544 13.1027 85.808 15.748C84.1547 18.3933 82.336 21.204 80.352 24.18C78.4507 27.0733 76.5907 29.884 74.772 32.612C72.9533 35.34 71.3 37.8613 69.812 40.176C68.4067 42.408 67.3733 44.144 66.712 45.384C67.208 45.3013 67.9107 45.26 68.82 45.26C69.812 45.1773 70.928 45.136 72.168 45.136C72.912 45.136 74.3587 45.1773 76.508 45.26C78.6573 45.3427 80.8893 45.508 83.204 45.756C85.6013 46.004 87.7093 46.376 89.528 46.872C91.4293 47.368 92.4627 48.0293 92.628 48.856C92.7107 49.2693 92.628 49.6413 92.38 49.972C92.132 50.3027 91.8013 50.4267 91.388 50.344C88.9907 49.9307 86.18 49.5173 82.956 49.104C79.8147 48.608 76.0533 48.36 71.672 48.36C70.5973 48.36 69.4813 48.4013 68.324 48.484C67.2493 48.484 66.1333 48.5253 64.976 48.608C64.6453 49.0213 63.9013 50.2613 62.744 52.328C61.5867 54.312 60.1813 56.8333 58.528 59.892C56.9573 62.868 55.2213 66.1747 53.32 69.812C51.5013 73.3667 49.7653 76.9627 48.112 80.6C46.4587 84.2373 44.9707 87.7093 43.648 91.016C42.408 94.3227 41.5813 97.1333 41.168 99.448C41.0853 99.944 40.9613 100.523 40.796 101.184C40.7133 101.845 40.3413 102.176 39.68 102.176C39.0187 102.176 38.6053 101.969 38.44 101.556C38.3573 101.225 38.316 100.771 38.316 100.192C38.316 98.5387 38.7707 96.3067 39.68 93.496C40.5893 90.768 41.7467 87.7507 43.152 84.444C44.5573 81.0547 46.128 77.5827 47.864 74.028C49.6827 70.3907 51.4187 66.96 53.072 63.736C54.808 60.4293 56.3787 57.4947 57.784 54.932C59.272 52.2867 60.4293 50.2613 61.256 48.856C59.8507 49.0213 57.3293 49.2693 53.692 49.6C50.0547 49.9307 46.004 50.5507 41.54 51.46C41.3747 51.46 40.7547 52.1213 39.68 53.444C38.6053 54.7667 37.4067 56.2547 36.084 57.908C34.844 59.5613 33.6867 61.132 32.612 62.62C31.62 64.0253 31.0827 64.852 31 65.1ZM52.7 37.944C51.8733 38.936 50.964 40.0107 49.972 41.168C48.98 42.2427 48.0293 43.276 47.12 44.268C46.2933 45.26 45.5907 46.128 45.012 46.872C44.4333 47.5333 44.144 47.864 44.144 47.864C47.0373 47.2853 50.0547 46.8307 53.196 46.5C56.42 46.1693 59.6027 45.9213 62.744 45.756C62.9093 45.756 63.116 45.5493 63.364 45.136C63.612 44.7227 64.2733 43.6067 65.348 41.788C66.836 39.3907 68.4893 36.828 70.308 34.1C72.1267 31.2893 73.9453 28.4787 75.764 25.668C77.5827 22.8573 79.36 20.1293 81.096 17.484C82.832 14.8387 84.3613 12.4827 85.684 10.416C87.0067 8.34933 88.04 6.696 88.784 5.456C89.528 4.13333 89.8587 3.38933 89.776 3.224C89.6933 3.05866 88.784 3.596 87.048 4.836C85.312 5.99333 82.832 7.97733 79.608 10.788C76.4667 13.516 72.6227 17.112 68.076 21.576C63.5293 26.04 58.404 31.496 52.7 37.944Z" fill="#F2F0EB"/>
<path d="M78.4784 60.388C77.8171 60.14 77.3624 59.7267 77.1144 59.148C76.9491 58.5693 76.8664 57.9907 76.8664 57.412C76.8664 56.8333 76.9078 56.296 76.9904 55.8C77.1558 55.304 77.2384 55.0147 77.2384 54.932C76.9078 55.2627 76.4118 55.7587 75.7504 56.42C75.0891 56.9987 74.3864 57.6187 73.6424 58.28C72.8984 58.8587 72.1544 59.3547 71.4104 59.768C70.6664 60.1813 70.0464 60.388 69.5504 60.388C69.0544 60.388 68.6411 60.264 68.3104 60.016C67.8971 59.6853 67.6491 59.1893 67.5664 58.528C67.4011 57.8667 67.5251 56.9573 67.9384 55.8C68.3518 54.56 68.8891 53.3613 69.5504 52.204C70.1291 50.964 70.7491 49.848 71.4104 48.856C72.1544 47.7813 72.8158 47.12 73.3944 46.872C73.8904 46.7067 74.2211 46.624 74.3864 46.624C74.8824 46.624 75.2958 46.7893 75.6264 47.12C75.9571 47.4507 76.1638 47.8227 76.2464 48.236C76.3291 48.5667 76.2464 48.8973 75.9984 49.228C75.8331 49.5587 75.5024 49.724 75.0064 49.724C74.7584 49.724 74.5931 49.7653 74.5104 49.848C74.4278 49.848 74.3038 50.0133 74.1384 50.344C73.7251 50.84 73.3118 51.46 72.8984 52.204C72.4851 52.8653 72.1131 53.5267 71.7824 54.188C71.5344 54.7667 71.2864 55.304 71.0384 55.8C70.8731 56.2133 70.8318 56.42 70.9144 56.42C70.9971 56.5027 71.6998 55.924 73.0224 54.684C74.4278 53.3613 76.2464 51.6253 78.4784 49.476C79.8011 48.236 80.6691 47.4507 81.0824 47.12C81.4958 46.7067 81.8678 46.5 82.1984 46.5C83.2731 46.5 83.8104 47.0373 83.8104 48.112C83.8104 48.36 83.7278 48.6493 83.5624 48.98C83.4798 49.228 83.1078 49.9307 82.4464 51.088C81.7851 52.08 81.2891 52.9893 80.9584 53.816C80.6278 54.56 80.3798 55.2213 80.2144 55.8C79.9664 56.3787 79.8011 56.916 79.7184 57.412C82.1984 55.8413 84.1411 54.436 85.5464 53.196C87.0344 51.8733 88.7291 50.4267 90.6304 48.856C91.7878 49.0213 92.4078 49.4347 92.4904 50.096C92.6558 50.6747 92.4491 51.212 91.8704 51.708C88.4811 54.6013 85.8771 56.792 84.0584 58.28C82.2398 59.768 80.6691 60.512 79.3464 60.512C78.9331 60.512 78.6438 60.4707 78.4784 60.388Z" fill="#F2F0EB"/>
<path d="M91.6418 47.864C91.8898 47.616 92.2205 47.492 92.6338 47.492C93.0471 47.492 93.4191 47.6573 93.7498 47.988C94.0805 48.3187 94.1631 48.6907 93.9978 49.104L92.7578 51.832C91.8485 53.7333 91.4351 54.684 91.5178 54.684L91.6418 54.56C91.6418 54.4773 91.7245 54.3533 91.8898 54.188C92.6338 53.444 93.5431 52.5347 94.6178 51.46C95.7751 50.3027 96.9738 49.228 98.2138 48.236C99.5365 47.244 100.818 46.4173 102.058 45.756C103.38 45.012 104.538 44.64 105.53 44.64C106.852 44.64 107.803 45.136 108.382 46.128C109.043 47.0373 109.291 48.0707 109.126 49.228C109.043 50.1373 108.836 50.7573 108.506 51.088C108.175 51.4187 107.844 51.584 107.514 51.584C107.183 51.584 106.894 51.46 106.646 51.212C106.232 50.716 106.108 50.1787 106.274 49.6C106.522 48.9387 106.563 48.4013 106.398 47.988C106.315 47.74 106.067 47.616 105.654 47.616C104.579 47.616 102.802 48.5667 100.322 50.468C97.8418 52.2867 95.2791 54.7667 92.6338 57.908L88.0458 63.488C87.6325 63.984 87.1778 64.232 86.6818 64.232C86.1031 64.232 85.6071 64.0253 85.1938 63.612C84.7805 63.116 84.6565 62.5787 84.8218 62C84.8218 61.8347 85.1938 61.0493 85.9378 59.644C86.5991 58.156 87.3431 56.544 88.1698 54.808C88.9965 53.072 89.7818 51.5013 90.5258 50.096C91.1871 48.6907 91.5591 47.9467 91.6418 47.864Z" fill="#F2F0EB"/>
<path d="M107.43 61.256C106.19 61.008 105.611 60.264 105.694 59.024C105.776 57.7013 106.148 56.296 106.81 54.808C107.388 53.32 108.132 51.956 109.042 50.716C109.951 49.3933 110.612 48.6493 111.026 48.484C111.191 48.4013 111.398 48.36 111.646 48.36C112.472 48.36 112.886 48.7733 112.886 49.6C112.886 50.096 112.596 50.716 112.018 51.46C111.439 52.1213 110.695 53.3613 109.786 55.18C109.62 55.5933 109.414 56.1307 109.166 56.792C108.918 57.4533 108.794 57.8667 108.794 58.032C108.794 58.1973 109.414 57.8667 110.654 57.04C111.894 56.2133 113.258 55.2627 114.746 54.188C116.234 53.1133 117.598 52.1213 118.838 51.212C120.16 50.3027 120.822 49.848 120.822 49.848C121.896 50.096 122.475 50.5093 122.558 51.088C122.64 51.584 122.392 52.1213 121.814 52.7C119.499 54.436 117.556 55.8413 115.986 56.916C114.415 57.9907 113.092 58.8587 112.018 59.52C111.026 60.1813 110.24 60.636 109.662 60.884C109 61.132 108.422 61.256 107.926 61.256H107.43ZM114.498 45.632C113.919 45.384 113.547 45.0533 113.382 44.64C113.299 44.144 113.464 43.6893 113.878 43.276C114.208 42.9453 114.58 42.78 114.994 42.78C115.82 42.78 116.275 43.152 116.358 43.896C116.523 44.392 116.44 44.8467 116.11 45.26C115.779 45.5907 115.407 45.756 114.994 45.756C114.911 45.756 114.828 45.756 114.746 45.756C114.663 45.6733 114.58 45.632 114.498 45.632Z" fill="#F2F0EB"/>
<path d="M118.818 55.428C119.397 55.0147 119.81 54.7253 120.058 54.56C120.223 54.3947 120.347 54.188 120.43 53.94C120.43 53.6093 120.471 53.1547 120.554 52.576C120.554 51.9147 120.637 50.9227 120.802 49.6C120.967 49.0213 121.091 48.4427 121.174 47.864C121.339 47.2027 121.835 46.872 122.662 46.872H123.034C123.695 47.0373 123.985 47.4093 123.902 47.988C123.902 48.5667 123.861 49.1867 123.778 49.848L123.53 51.832C126.258 50.096 128.242 48.856 129.482 48.112C130.722 47.2853 131.673 46.872 132.334 46.872C132.499 46.872 132.747 46.9547 133.078 47.12C133.326 47.368 133.45 47.6987 133.45 48.112C133.533 48.4427 133.491 48.732 133.326 48.98C133.243 49.0627 133.078 49.1867 132.83 49.352C132.582 49.5173 132.127 49.848 131.466 50.344C130.805 50.7573 129.813 51.4187 128.49 52.328C127.167 53.1547 125.39 54.3533 123.158 55.924C123.075 56.9987 123.075 58.032 123.158 59.024C123.241 59.9333 123.241 60.5533 123.158 60.884C123.075 61.628 122.703 62 122.042 62C121.629 62 121.257 61.8347 120.926 61.504C120.513 61.0907 120.306 60.512 120.306 59.768C120.223 58.9413 120.182 58.404 120.182 58.156C120.099 58.2387 119.893 58.4453 119.562 58.776C119.231 59.024 118.859 59.3547 118.446 59.768C117.454 60.512 116.793 60.884 116.462 60.884H116.09C115.594 60.7187 115.305 60.388 115.222 59.892C115.139 59.3133 115.305 58.776 115.718 58.28C115.883 58.1147 116.297 57.7427 116.958 57.164C117.537 56.5027 118.157 55.924 118.818 55.428Z" fill="#F2F0EB"/>
<path d="M124.577 71.176C124.164 71.672 123.709 71.92 123.213 71.92C122.8 71.92 122.469 71.7133 122.221 71.3C121.891 70.8867 121.808 70.3907 121.973 69.812C121.973 69.812 122.841 68.4067 124.577 65.596C126.231 62.7853 128.339 59.272 130.901 55.056C133.381 50.84 136.109 46.2933 139.085 41.416C142.061 36.5387 144.831 31.992 147.393 27.776C150.039 23.56 152.229 20.0467 153.965 17.236C155.784 14.3427 156.776 12.8547 156.941 12.772C157.272 12.6067 157.52 12.524 157.685 12.524C158.099 12.524 158.471 12.7307 158.801 13.144C159.132 13.4747 159.132 13.9707 158.801 14.632L124.577 71.176Z" fill="#F2F0EB"/>
<path d="M140.451 61.256C140.038 61.0907 139.749 60.884 139.583 60.636C139.501 60.3053 139.418 60.016 139.335 59.768C139.253 59.4373 139.253 59.1067 139.335 58.776C138.178 59.52 137.227 59.892 136.483 59.892C135.326 59.892 134.665 59.2307 134.499 57.908C134.499 57.164 134.789 56.2547 135.367 55.18C135.863 54.0227 136.525 52.9067 137.351 51.832C138.095 50.7573 138.922 49.848 139.831 49.104C140.741 48.2773 141.609 47.864 142.435 47.864C143.097 47.864 143.593 47.988 143.923 48.236C144.254 48.484 144.543 48.6907 144.791 48.856C145.205 48.5253 145.494 48.2773 145.659 48.112C145.825 47.9467 146.114 47.864 146.527 47.864C146.941 47.864 147.271 47.988 147.519 48.236C147.85 48.484 148.015 48.8147 148.015 49.228C148.015 49.5587 147.974 49.848 147.891 50.096C147.809 50.2613 147.561 50.592 147.147 51.088C145.329 53.6507 144.461 54.932 144.543 54.932C144.709 54.932 146.238 53.072 149.131 49.352C152.025 45.5493 155.91 40.2173 160.787 33.356C163.763 29.0573 166.161 25.668 167.979 23.188C169.881 20.6253 171.327 18.6827 172.319 17.36C173.394 15.9547 174.138 15.0453 174.551 14.632C175.047 14.2187 175.419 14.012 175.667 14.012C176.329 14.012 176.825 14.4667 177.155 15.376C177.155 16.0373 175.75 18.104 172.939 21.576C170.211 25.048 166.657 30.4213 162.275 37.696C161.201 39.5147 160.209 41.2507 159.299 42.904C158.473 44.4747 157.729 45.88 157.067 47.12C156.323 48.5253 155.662 49.848 155.083 51.088C155.662 50.592 156.323 50.0547 157.067 49.476C157.894 48.8973 158.721 48.3187 159.547 47.74C160.457 47.1613 161.325 46.7067 162.151 46.376C163.061 45.9627 163.929 45.756 164.755 45.756C165.334 45.756 165.747 45.7973 165.995 45.88C167.153 46.2107 167.773 46.9133 167.855 47.988C168.021 49.0627 167.855 50.344 167.359 51.832C166.863 53.2373 166.119 54.7667 165.127 56.42C164.135 57.9907 163.061 59.52 161.903 61.008C160.829 62.496 159.713 63.8187 158.555 64.976C157.481 66.0507 156.571 66.836 155.827 67.332C155.414 67.4973 154.959 67.6627 154.463 67.828C154.05 67.9933 153.637 68.076 153.223 68.076C152.066 68.076 151.281 67.58 150.867 66.588C150.619 65.844 150.661 64.9347 150.991 63.86C151.405 62.7853 151.942 61.752 152.603 60.76C153.347 59.768 154.133 58.9413 154.959 58.28C155.786 57.6187 156.489 57.288 157.067 57.288C157.977 57.288 158.431 57.7013 158.431 58.528C158.431 59.024 158.101 59.5613 157.439 60.14C156.034 61.2973 155.083 62.372 154.587 63.364C154.091 64.356 153.885 64.852 153.967 64.852C153.967 64.9347 154.257 64.728 154.835 64.232C155.497 63.736 156.282 62.992 157.191 62C158.101 61.008 159.093 59.8093 160.167 58.404C161.242 56.916 162.234 55.304 163.143 53.568C163.309 53.32 163.515 52.9067 163.763 52.328C164.094 51.7493 164.342 51.1707 164.507 50.592C164.755 50.0133 164.921 49.5173 165.003 49.104C165.086 48.6907 165.003 48.5253 164.755 48.608C163.681 48.856 162.441 49.4347 161.035 50.344C159.713 51.2533 158.431 52.2867 157.191 53.444C155.951 54.5187 154.835 55.6347 153.843 56.792C152.851 57.8667 152.149 58.7347 151.735 59.396C150.991 60.4707 150.289 61.008 149.627 61.008C149.131 61.008 148.718 60.8427 148.387 60.512C148.139 60.0987 148.098 59.6853 148.263 59.272C148.429 58.6107 148.718 57.784 149.131 56.792C149.545 55.7173 149.958 54.7253 150.371 53.816C150.867 52.9067 151.239 52.1627 151.487 51.584C151.735 51.0053 151.735 50.84 151.487 51.088C149.255 54.064 147.271 56.544 145.535 58.528C143.799 60.4293 142.311 61.38 141.071 61.38C140.823 61.38 140.617 61.3387 140.451 61.256ZM142.683 50.964C142.353 50.8813 141.691 51.336 140.699 52.328C139.79 53.2373 139.046 54.312 138.467 55.552C139.294 54.808 140.038 54.064 140.699 53.32C141.443 52.576 142.105 51.7907 142.683 50.964Z" fill="#F2F0EB"/>
</g>
</svg>
